HIERARCHY
ROOT reference
{
  OFFSET 0 0 0
  CHANNELS 6 Xposition Yposition Zposition Zrotation Xrotation Yrotation
  JOINT Hips
  {
    OFFSET 356.501 91.4882 232.072
    CHANNELS 3 Zrotation Xrotation Yrotation
    JOINT RightUpLeg
    {
      OFFSET -9.22368 -1.56954 0.0182318
      CHANNELS 3 Zrotation Xrotation Yrotation
      JOINT RightLeg
      {
        OFFSET 0.0168043 -41.8502 0.039304
        CHANNELS 3 Zrotation Xrotation Yrotation
        JOINT RightFoot
        {
          OFFSET -1.24655 -41.4872 1.84727
          CHANNELS 3 Zrotation Xrotation Yrotation
          End Site
          {
            OFFSET 0 -7.69 17.5
          }
        }
      }
    }
    JOINT LeftUpLeg
    {
      OFFSET 9.32755 -1.5915 0.117934
      CHANNELS 3 Zrotation Xrotation Yrotation
      JOINT LeftLeg
      {
        OFFSET 0.115891 -41.8441 0.138627
        CHANNELS 3 Zrotation Xrotation Yrotation
        JOINT LeftFoot
        {
          OFFSET -0.00258131 -42.0603 -2.16995
          CHANNELS 3 Zrotation Xrotation Yrotation
          End Site
          {
            OFFSET 0 -7.69 17.5
          }
        }
      }
    }
    JOINT Spine
    {
      OFFSET 0.0618908 14.3142 0.263402
      CHANNELS 3 Zrotation Xrotation Yrotation
      JOINT Spine1
      {
        OFFSET 0.00953893 9.71784 0.0772804
        CHANNELS 3 Zrotation Xrotation Yrotation
        JOINT Spine2
        {
          OFFSET 0.0659978 10.1164 -0.109334
          CHANNELS 3 Zrotation Xrotation Yrotation
          JOINT Spine3
          {
            OFFSET 0.00354353 9.7233 0.0181573
            CHANNELS 3 Zrotation Xrotation Yrotation
            JOINT Neck
            {
              OFFSET -0.106539 10.3631 0.143191
              CHANNELS 3 Zrotation Xrotation Yrotation
              JOINT Head
              {
                OFFSET 0.0687213 9.49492 0.178169
                CHANNELS 3 Zrotation Xrotation Yrotation
                End Site
                {
                  OFFSET 0 15.95 0
                }
              }
            }
            JOINT RightShoulder
            {
              OFFSET -3.17341 6.93407 0.0508814
              CHANNELS 3 Zrotation Xrotation Yrotation
              JOINT RightArm
              {
                OFFSET -12.8122 0.02699 0.0058978
                CHANNELS 3 Zrotation Xrotation Yrotation
                JOINT RightForeArm
                {
                  OFFSET -26.4689 -0.0132424 0.0432591
                  CHANNELS 3 Zrotation Xrotation Yrotation
                  JOINT RightHand
                  {
                    OFFSET -25.9762 -0.0747187 0.0544432
                    CHANNELS 3 Zrotation Xrotation Yrotation
                    JOINT RightHandThumb1
                    {
                      OFFSET -2.48905 0.190105 3.12053
                      CHANNELS 3 Zrotation Xrotation Yrotation
                      JOINT RightHandThumb2
                      {
                        OFFSET -3.68274 0 0
                        CHANNELS 3 Zrotation Xrotation Yrotation
                        JOINT RightHandThumb3
                        {
                          OFFSET -2.55832 0 0
                          CHANNELS 3 Zrotation Xrotation Yrotation
                          End Site
                          {
                            OFFSET -2.194 0 0
                          }
                        }
                      }
                    }
                    JOINT RightInHandIndex
                    {
                      OFFSET -3.22368 0.508421 1.97842
                      CHANNELS 3 Zrotation Xrotation Yrotation
                      JOINT RightHandIndex1
                      {
                        OFFSET -5.21684 -0.091368 0.999158
                        CHANNELS 3 Zrotation Xrotation Yrotation
                        JOINT RightHandIndex2
                        {
                          OFFSET -3.61937 0 0
                          CHANNELS 3 Zrotation Xrotation Yrotation
                          JOINT RightHandIndex3
                          {
                            OFFSET -2.0521 0 0
                            CHANNELS 3 Zrotation Xrotation Yrotation
                            End Site
                            {
                              OFFSET -1.805 0 0
                            }
                          }
                        }
                      }
                    }
                    JOINT RightInHandMiddle
                    {
                      OFFSET -3.38211 0.517263 0.756737
                      CHANNELS 3 Zrotation Xrotation Yrotation
                      JOINT RightHandMiddle1
                      {
                        OFFSET -5.17411 -0.084 0.313895
                        CHANNELS 3 Zrotation Xrotation Yrotation
                        JOINT RightHandMiddle2
                        {
                          OFFSET -3.94947 0 0
                          CHANNELS 3 Zrotation Xrotation Yrotation
                          JOINT RightHandMiddle3
                          {
                            OFFSET -2.47579 0 0
                            CHANNELS 3 Zrotation Xrotation Yrotation
                            End Site
                            {
                              OFFSET -1.975 0 0
                            }
                          }
                        }
                      }
                    }
                    JOINT RightInHandRing
                    {
                      OFFSET -3.36516 0.537895 -0.128947
                      CHANNELS 3 Zrotation Xrotation Yrotation
                      JOINT RightHandRing1
                      {
                        OFFSET -4.63474 -0.022105 -0.478947
                        CHANNELS 3 Zrotation Xrotation Yrotation
                        JOINT RightHandRing2
                        {
                          OFFSET -3.44238 0 0
                          CHANNELS 3 Zrotation Xrotation Yrotation
                          JOINT RightHandRing3
                          {
                            OFFSET -2.3881 0 0
                            CHANNELS 3 Zrotation Xrotation Yrotation
                            End Site
                            {
                              OFFSET -1.857 0 0
                            }
                          }
                        }
                      }
                    }
                    JOINT RightInHandPinky
                    {
                      OFFSET -3.16105 0.469368 -1.20179
                      CHANNELS 3 Zrotation Xrotation Yrotation
                      JOINT RightHandPinky1
                      {
                        OFFSET -4.14105 -0.022105 -1.09053
                        CHANNELS 3 Zrotation Xrotation Yrotation
                        JOINT RightHandPinky2
                        {
                          OFFSET -2.75653 0 0
                          CHANNELS 3 Zrotation Xrotation Yrotation
                          JOINT RightHandPinky3
                          {
                            OFFSET -1.74189 0 0
                            CHANNELS 3 Zrotation Xrotation Yrotation
                            End Site
                            {
                              OFFSET -1.645 0 0
                            }
                          }
                        }
                      }
                    }
                  }
                }
              }
            }
            JOINT LeftShoulder
            {
              OFFSET 3.13763 6.93537 0.265461
              CHANNELS 3 Zrotation Xrotation Yrotation
              JOINT LeftArm
              {
                OFFSET 12.4516 -0.0856895 0.350644
                CHANNELS 3 Zrotation Xrotation Yrotation
                JOINT LeftForeArm
                {
                  OFFSET 26.6962 -0.139113 0.0812581
                  CHANNELS 3 Zrotation Xrotation Yrotation
                  JOINT LeftHand
                  {
                    OFFSET 25.9561 0.0264111 -0.243705
                    CHANNELS 3 Zrotation Xrotation Yrotation
                    JOINT LeftHandThumb1
                    {
                      OFFSET 2.48905 0.190105 3.12053
                      CHANNELS 3 Zrotation Xrotation Yrotation
                      JOINT LeftHandThumb2
                      {
                        OFFSET 3.68274 0 0
                        CHANNELS 3 Zrotation Xrotation Yrotation
                        JOINT LeftHandThumb3
                        {
                          OFFSET 2.55832 0 0
                          CHANNELS 3 Zrotation Xrotation Yrotation
                          End Site
                          {
                            OFFSET 2.194 0 0
                          }
                        }
                      }
                    }
                    JOINT LeftInHandIndex
                    {
                      OFFSET 3.22368 0.508421 1.97842
                      CHANNELS 3 Zrotation Xrotation Yrotation
                      JOINT LeftHandIndex1
                      {
                        OFFSET 5.21684 -0.091368 0.999158
                        CHANNELS 3 Zrotation Xrotation Yrotation
                        JOINT LeftHandIndex2
                        {
                          OFFSET 3.61937 0 0
                          CHANNELS 3 Zrotation Xrotation Yrotation
                          JOINT LeftHandIndex3
                          {
                            OFFSET 2.0521 0 0
                            CHANNELS 3 Zrotation Xrotation Yrotation
                            End Site
                            {
                              OFFSET 1.805 0 0
                            }
                          }
                        }
                      }
                    }
                    JOINT LeftInHandMiddle
                    {
                      OFFSET 3.38211 0.517263 0.756737
                      CHANNELS 3 Zrotation Xrotation Yrotation
                      JOINT LeftHandMiddle1
                      {
                        OFFSET 5.17411 -0.084 0.313895
                        CHANNELS 3 Zrotation Xrotation Yrotation
                        JOINT LeftHandMiddle2
                        {
                          OFFSET 3.94947 0 0
                          CHANNELS 3 Zrotation Xrotation Yrotation
                          JOINT LeftHandMiddle3
                          {
                            OFFSET 2.47579 0 0
                            CHANNELS 3 Zrotation Xrotation Yrotation
                            End Site
                            {
                              OFFSET 1.975 0 0
                            }
                          }
                        }
                      }
                    }
                    JOINT LeftInHandRing
                    {
                      OFFSET 3.36516 0.537895 -0.128947
                      CHANNELS 3 Zrotation Xrotation Yrotation
                      JOINT LeftHandRing1
                      {
                        OFFSET 4.63474 -0.022105 -0.478947
                        CHANNELS 3 Zrotation Xrotation Yrotation
                        JOINT LeftHandRing2
                        {
                          OFFSET 3.44238 0 0
                          CHANNELS 3 Zrotation Xrotation Yrotation
                          JOINT LeftHandRing3
                          {
                            OFFSET 2.3881 0 0
                            CHANNELS 3 Zrotation Xrotation Yrotation
                            End Site
                            {
                              OFFSET 1.857 0 0
                            }
                          }
                        }
                      }
                    }
                    JOINT LeftInHandPinky
                    {
                      OFFSET 3.16105 0.469368 -1.20179
                      CHANNELS 3 Zrotation Xrotation Yrotation
                      JOINT LeftHandPinky1
                      {
                        OFFSET 4.14105 -0.022105 -1.09053
                        CHANNELS 3 Zrotation Xrotation Yrotation
                        JOINT LeftHandPinky2
                        {
                          OFFSET 2.75653 0 0
                          CHANNELS 3 Zrotation Xrotation Yrotation
                          JOINT LeftHandPinky3
                          {
                            OFFSET 1.74189 0 0
                            CHANNELS 3 Zrotation Xrotation Yrotation
                            End Site
                            {
                              OFFSET 1.645 0 0
                            }
                          }
                        }
                      }
                    }
                  }
                }
              }
            }
          }
        }
      }
    }
  }
}
MOTION
Frames: 2
Frame Time: 0.00833333
6.000000000000000000e+02 0.000000000000000000e+00 0.000000000000000000e+00 0.000000000000000000e+00 0.000000000000000000e+00 0.000000000000000000e+00 -3.150382302345721558e-02 -9.577339445892601999e-02 -8.280090830086423992e-01 7.092332533751650736e-01 3.998115042855143741e-02 7.387722654603153805e-01 2.310532651293331977e-02 1.899014752973703091e-02 7.249298937387242681e-02 -5.398944371649233576e-02 -4.635771023444718031e-02 2.845015164104454652e-01 2.333866067859691751e-01 3.263197784740597962e-01 3.623414206024768713e-01 -1.425278248523067226e-01 1.825064474694269301e-01 2.171112326026924944e-01 9.107779523417305900e-02 -2.035765017594452497e-01 2.556306348919137328e-01 -3.223930309175143238e-03 -7.025388882985449113e-02 -2.201198671134661500e-01 -3.093816688947655970e-03 -2.173945765970098851e-02 -5.372401306368626561e-02 -5.263497172150495909e-03 -3.525793347655804821e-02 -8.773910333320319999e-02 -9.136396452137032428e-03 -9.905936329741090937e-03 4.297479943083294673e-02 -2.078003800749910618e-02 -6.516481144846812679e-02 3.535877838429075104e-01 -1.396286314471631984e-01 -6.776264652036434466e-02 6.270272935934443348e-01 -8.567294173395563484e-02 7.891425472636721949e-02 -8.456096622864109347e-02 1.416351227844569183e-01 -5.800643058403556207e-01 -5.879767971032736629e-01 6.948694906634053092e-01 6.077070245603863885e-01 1.237759597012865420e+00 -7.974740872564275995e-02 -4.410477953714571075e-01 1.543643878674260672e-01 0.000000000000000000e+00 0.000000000000000000e+00 0.000000000000000000e+00 -1.980066277433413954e-15 9.061628813296566009e-16 0.000000000000000000e+00 1.045564760561975737e-15 4.142567166865385166e-16 0.000000000000000000e+00 1.447537428303263651e-15 -1.798457805187837732e-16 1.259415407126868693e-15 0.000000000000000000e+00 0.000000000000000000e+00 0.000000000000000000e+00 0.000000000000000000e+00 4.259484575169121235e-16 2.257529753689822208e-15 0.000000000000000000e+00 -2.428114085975476188e-15 -1.101268054777296560e-14 1.447537428303263651e-15 -1.798457805187837732e-16 1.259415407126868693e-15 0.000000000000000000e+00 -8.798663273677086255e-16 7.555428754900150733e-16 0.000000000000000000e+00 2.116576044519326237e-15 2.287615779381582212e-15 0.000000000000000000e+00 -2.616096229116884355e-15 -6.708335675068088607e-15 1.447537428303263651e-15 -1.798457805187837732e-16 1.259415407126868693e-15 0.000000000000000000e+00 0.000000000000000000e+00 0.000000000000000000e+00 0.000000000000000000e+00 -2.015768410401517486e-16 6.000784639428280563e-15 0.000000000000000000e+00 3.533928797986333277e-16 -3.969136074037668936e-15 1.447537428303263651e-15 -1.798457805187837732e-16 1.259415407126868693e-15 0.000000000000000000e+00 0.000000000000000000e+00 0.000000000000000000e+00 0.000000000000000000e+00 1.849306876869753226e-16 2.911615521748317306e-16 0.000000000000000000e+00 5.047271311433206074e-16 -2.553971664250327003e-15 -3.092425476615506819e-02 -6.308784561626966381e-02 -2.033902909755160027e-01 -2.044854723787079831e-01 -4.317064315510654726e-02 2.645569062150049389e-02 -1.030468464862238420e+00 1.116485351602100051e+00 -1.391659988871829068e+00 2.075931044567496941e-01 -2.076641355947373424e-01 -9.863578068057396453e-02 0.000000000000000000e+00 0.000000000000000000e+00 0.000000000000000000e+00 1.121806799660146213e-16 6.573058066214441220e-16 0.000000000000000000e+00 2.950189968404606845e-15 -2.751387249041528604e-16 0.000000000000000000e+00 3.052885814697403466e-16 -2.401052661882303521e-16 1.002297337998748455e-15 0.000000000000000000e+00 0.000000000000000000e+00 0.000000000000000000e+00 0.000000000000000000e+00 6.560747298352033731e-16 1.651094970291007106e-15 0.000000000000000000e+00 5.518524507982576551e-16 -2.250983045855093262e-15 3.052885814697403466e-16 -2.401052661882303521e-16 1.002297337998748455e-15 0.000000000000000000e+00 -4.769793586968800089e-16 9.059448888843479348e-16 0.000000000000000000e+00 -6.826971581223822134e-16 2.565415304750783694e-15 0.000000000000000000e+00 2.012464070016946728e-15 -4.131234666128050414e-15 3.052885814697403466e-16 -2.401052661882303521e-16 1.002297337998748455e-15 0.000000000000000000e+00 0.000000000000000000e+00 0.000000000000000000e+00 0.000000000000000000e+00 -9.067305585996270796e-16 2.688058282959472777e-16 0.000000000000000000e+00 2.711352815747062574e-16 -3.737573207127949061e-15 3.052885814697403466e-16 -2.401052661882303521e-16 1.002297337998748455e-15 0.000000000000000000e+00 0.000000000000000000e+00 0.000000000000000000e+00 0.000000000000000000e+00 -1.853227988396710722e-15 2.317225381651549755e-15 0.000000000000000000e+00 -1.056254417964792851e-15 -9.284299585749030421e-16
6.000000000000000000e+02 0.000000000000000000e+00 0.000000000000000000e+00 0.000000000000000000e+00 0.000000000000000000e+00 0.000000000000000000e+00 -4.196710831920873186e-02 -8.446070811125577782e-02 -7.210190800067244332e-01 6.529497056307504987e-01 4.896855066316176813e-02 7.221349621909960437e-01 3.404864247957467560e-02 1.934909397265363942e-02 4.883724645354865779e-02 -4.413063335345617649e-02 -4.755581288079831215e-02 2.183468548894352268e-01 2.007262657125440664e-01 2.896171544726758862e-01 3.647530838923354057e-01 -9.813815005047757389e-02 1.590037115322083805e-01 1.799917363318749852e-01 7.436869676361575199e-02 -1.667199160924829893e-01 1.779716197003733125e-01 -7.945393893656347087e-03 -5.169420347535024635e-02 -1.465076459202054870e-01 -3.171172632741870064e-03 -1.651546462203582616e-02 -3.558761341753999968e-02 -5.572754028688502170e-03 -2.718274953179640116e-02 -5.816303413056465865e-02 -7.219955936227766442e-03 -8.617987528195085456e-03 3.504271683792624381e-02 -1.714955680298205914e-02 -5.117777347077970274e-02 2.721831419359043158e-01 -1.091495435479902937e-01 -6.371141582225464672e-02 5.193096777508574569e-01 -9.433211849428665974e-02 5.102001459134233863e-02 -3.381544050082364861e-02 1.652429096967743816e-01 -4.560825223364542991e-01 -5.045352281611438228e-01 5.930547016424925211e-01 5.568328201526765442e-01 1.052228766695514572e+00 -7.532251518668620083e-02 -4.028314458578656776e-01 7.766011669052122479e-03 0.000000000000000000e+00 0.000000000000000000e+00 0.000000000000000000e+00 -1.925866545978703146e-15 9.947952773941559443e-16 0.000000000000000000e+00 8.971336022696658171e-16 4.228648955148354152e-16 0.000000000000000000e+00 1.298815542837807875e-15 -1.642967208749544247e-16 8.490044412666776827e-16 0.000000000000000000e+00 0.000000000000000000e+00 0.000000000000000000e+00 0.000000000000000000e+00 3.818586862823189375e-16 3.199098133783152667e-15 0.000000000000000000e+00 -2.379236625081515166e-15 -1.019897386083245675e-14 1.298815542837807875e-15 -1.642967208749544247e-16 8.490044412666776827e-16 0.000000000000000000e+00 -5.909167310049901985e-16 9.791259126011463088e-16 0.000000000000000000e+00 2.169117190832056311e-15 3.230309490864098828e-15 0.000000000000000000e+00 -2.576967362386059125e-15 -6.357878540382798056e-15 1.298815542837807875e-15 -1.642967208749544247e-16 8.490044412666776827e-16 0.000000000000000000e+00 0.000000000000000000e+00 0.000000000000000000e+00 0.000000000000000000e+00 1.146272074827907389e-16 6.459738165857515332e-15 0.000000000000000000e+00 3.506991182425534588e-16 -3.888899740184750230e-15 1.298815542837807875e-15 -1.642967208749544247e-16 8.490044412666776827e-16 0.000000000000000000e+00 0.000000000000000000e+00 0.000000000000000000e+00 0.000000000000000000e+00 4.089859410192220029e-16 1.070192059225453533e-15 0.000000000000000000e+00 3.800821420277835373e-16 -2.601864993592742677e-15 -2.435326400634624244e-02 -3.419995851490649497e-02 -1.423766706372195656e-01 -2.739227528731014716e-01 -4.639251870278011947e-02 1.096657232809839233e-01 -1.086348925931464704e+00 1.008363691671642082e+00 -1.388353322323511829e+00 1.839278407184475606e-01 -2.203827702077897910e-01 -9.638752091230039232e-02 0.000000000000000000e+00 0.000000000000000000e+00 0.000000000000000000e+00 2.297289116233887086e-17 5.789453025350004056e-16 0.000000000000000000e+00 2.515915815505763212e-15 -1.083745246220197848e-16 0.000000000000000000e+00 3.887289456596271484e-16 -2.944417522636721014e-16 7.278702200771723812e-16 0.000000000000000000e+00 0.000000000000000000e+00 0.000000000000000000e+00 0.000000000000000000e+00 6.373432271580173880e-16 1.092912449854685901e-15 0.000000000000000000e+00 7.279900366277890529e-16 -3.292939401975212185e-15 3.887289456596271484e-16 -2.944417522636721014e-16 7.278702200771723812e-16 0.000000000000000000e+00 -4.934794096042336032e-16 9.210900968945383361e-16 0.000000000000000000e+00 -3.872978285345571551e-16 1.749416257631366068e-15 0.000000000000000000e+00 1.821503793226425152e-15 -4.763055625277790793e-15 3.887289456596271484e-16 -2.944417522636721014e-16 7.278702200771723812e-16 0.000000000000000000e+00 0.000000000000000000e+00 0.000000000000000000e+00 0.000000000000000000e+00 -7.434933014684242202e-16 -4.542230239845588769e-16 0.000000000000000000e+00 5.031151205114345681e-16 -4.608353582135071935e-15 3.887289456596271484e-16 -2.944417522636721014e-16 7.278702200771723812e-16 0.000000000000000000e+00 0.000000000000000000e+00 0.000000000000000000e+00 0.000000000000000000e+00 -1.744796255105041717e-15 2.130707083015574242e-15 0.000000000000000000e+00 -1.017607351189250873e-15 -1.419311337592103197e-15
